<?xml version="1.0" encoding="UTF-8"?>
<svg xmlns="http://www.w3.org/2000/svg" xmlns:xlink="http://www.w3.org/1999/xlink" width="55pt" height="54pt" viewBox="0 0 55 54" version="1.1">
<g id="surface1">
<path style=" stroke:none;fill-rule:nonzero;fill:rgb(72.54902%,60%,34.117647%);fill-opacity:1;" d="M 49.742188 25.378906 C 51.332031 23.621094 52.519531 21.546875 53.214844 19.296875 C 54.382812 15.429688 54.9375 11.40625 54.855469 7.371094 C 54.832031 6.925781 54.535156 6.539062 54.109375 6.386719 C 53.679688 6.238281 53.203125 6.355469 52.898438 6.6875 C 52.414062 7.433594 51.628906 7.941406 50.734375 8.078125 C 49.84375 8.214844 48.9375 7.964844 48.246094 7.394531 C 46.175781 5.957031 43.65625 5.292969 41.132812 5.515625 C 39.203125 5.769531 37.328125 6.332031 35.582031 7.171875 C 34.941406 7.4375 34.34375 7.703125 33.78125 7.890625 C 33.59375 7.957031 33.382812 7.929688 33.21875 7.8125 C 33.050781 7.699219 32.949219 7.507812 32.949219 7.304688 C 32.949219 4.425781 31.175781 3.054688 29.738281 1.953125 C 29.144531 1.542969 28.636719 1.027344 28.242188 0.429688 C 28.097656 0.160156 27.808594 -0.00390625 27.5 0 C 27.199219 0 26.925781 0.164062 26.792969 0.429688 C 26.378906 1.003906 25.859375 1.496094 25.261719 1.886719 C 23.824219 2.988281 22.050781 4.359375 22.050781 7.238281 C 22.050781 7.441406 21.949219 7.632812 21.78125 7.746094 C 21.617188 7.863281 21.40625 7.890625 21.21875 7.824219 C 20.65625 7.636719 20.09375 7.371094 19.429688 7.105469 C 17.675781 6.289062 15.796875 5.753906 13.867188 5.515625 C 11.347656 5.292969 8.828125 5.957031 6.765625 7.394531 C 6.074219 7.964844 5.164062 8.214844 4.269531 8.078125 C 3.375 7.941406 2.585938 7.4375 2.101562 6.6875 C 1.796875 6.355469 1.320312 6.238281 0.890625 6.386719 C 0.464844 6.539062 0.167969 6.925781 0.144531 7.371094 C 0.0625 11.421875 0.617188 15.457031 1.785156 19.34375 C 2.488281 21.578125 3.671875 23.636719 5.257812 25.378906 C 6.964844 27.1875 9.296875 28.308594 11.800781 28.523438 C 18.621094 29.183594 22.441406 30.894531 24.441406 32.207031 C 26.296875 33.414062 28.703125 33.414062 30.558594 32.207031 C 32.570312 30.894531 36.378906 29.183594 43.199219 28.523438 C 45.703125 28.308594 48.035156 27.1875 49.742188 25.378906 M 42.996094 26.945312 C 35.851562 27.640625 31.757812 29.472656 29.625 30.882812 C 28.3125 31.738281 26.609375 31.738281 25.296875 30.882812 C 23.140625 29.472656 19.058594 27.640625 11.914062 26.945312 C 7.867188 26.558594 4.957031 23.8125 3.28125 18.800781 C 2.257812 15.472656 1.730469 12.015625 1.71875 8.539062 C 2.234375 9 2.851562 9.335938 3.515625 9.535156 C 4.945312 9.878906 6.457031 9.578125 7.628906 8.707031 C 12.125 5.769531 15.65625 7.261719 18.769531 8.585938 C 19.417969 8.859375 20.039062 9.125 20.65625 9.335938 C 21.335938 9.574219 22.09375 9.472656 22.691406 9.070312 C 23.289062 8.65625 23.648438 7.980469 23.644531 7.261719 C 23.644531 5.140625 24.902344 4.183594 26.230469 3.167969 C 26.667969 2.820312 27.082031 2.453125 27.476562 2.0625 C 27.871094 2.453125 28.289062 2.820312 28.726562 3.167969 C 30.0625 4.183594 31.320312 5.140625 31.320312 7.261719 C 31.320312 7.980469 31.675781 8.65625 32.277344 9.070312 C 32.867188 9.472656 33.621094 9.570312 34.300781 9.335938 C 34.917969 9.125 35.535156 8.859375 36.1875 8.585938 C 39.300781 7.261719 42.816406 5.769531 47.324219 8.707031 C 48.5 9.578125 50.007812 9.878906 51.4375 9.535156 C 52.09375 9.347656 52.699219 9.023438 53.214844 8.585938 C 53.207031 12.0625 52.683594 15.515625 51.664062 18.847656 C 49.976562 23.855469 47.066406 26.570312 43.019531 26.988281 "/>
<path style=" stroke:none;fill-rule:nonzero;fill:rgb(72.54902%,60%,34.117647%);fill-opacity:1;" d="M 21.5 14.796875 C 20 13.640625 18.074219 13.15625 16.195312 13.472656 C 10.933594 14.144531 9.191406 12.820312 9.058594 12.722656 C 8.820312 12.449219 8.417969 12.382812 8.101562 12.566406 C 7.777344 12.746094 7.617188 13.117188 7.710938 13.472656 C 8.832031 17.621094 10.84375 20.457031 13.8125 21.902344 C 15.347656 22.640625 17.035156 23.019531 18.746094 23.003906 C 20.578125 23 22.398438 22.664062 24.105469 22.011719 C 24.425781 21.882812 24.621094 21.566406 24.601562 21.230469 C 24.601562 21.050781 24.253906 17.035156 21.5 14.828125 M 14.53125 20.523438 C 12.261719 19.304688 10.566406 17.261719 9.8125 14.828125 C 11.964844 15.367188 14.207031 15.453125 16.398438 15.082031 C 17.832031 14.824219 19.316406 15.171875 20.476562 16.042969 C 21.804688 17.300781 22.664062 18.960938 22.914062 20.753906 C 21.511719 21.207031 17.800781 22.113281 14.53125 20.523438 "/>
<path style=" stroke:none;fill-rule:nonzero;fill:rgb(72.54902%,60%,34.117647%);fill-opacity:1;" d="M 46.886719 12.566406 C 46.570312 12.382812 46.167969 12.449219 45.929688 12.722656 C 45.796875 12.820312 44.054688 14.144531 38.804688 13.472656 C 36.921875 13.15625 34.992188 13.636719 33.488281 14.796875 C 30.738281 17.003906 30.398438 21.019531 30.386719 21.195312 C 30.367188 21.535156 30.566406 21.847656 30.882812 21.980469 C 32.59375 22.632812 34.410156 22.96875 36.242188 22.972656 C 37.953125 22.984375 39.640625 22.605469 41.175781 21.871094 C 44.144531 20.457031 46.222656 17.652344 47.28125 13.472656 C 47.382812 13.117188 47.21875 12.742188 46.886719 12.566406 M 40.46875 20.480469 C 37.210938 22.078125 33.480469 21.164062 32.074219 20.722656 C 32.320312 18.929688 33.179688 17.269531 34.511719 16.019531 C 35.667969 15.140625 37.152344 14.789062 38.59375 15.050781 C 40.78125 15.421875 43.023438 15.332031 45.179688 14.796875 C 44.429688 17.222656 42.738281 19.265625 40.46875 20.480469 "/>
<path style=" stroke:none;fill-rule:nonzero;fill:rgb(72.54902%,60%,34.117647%);fill-opacity:1;" d="M 53.167969 35.519531 L 53.167969 23.84375 C 53.203125 23.539062 53.058594 23.242188 52.796875 23.078125 C 52.53125 22.914062 52.195312 22.914062 51.933594 23.078125 C 51.667969 23.242188 51.523438 23.539062 51.5625 23.84375 L 51.5625 35.308594 L 50.4375 35.308594 L 50.4375 28.027344 C 50.472656 27.722656 50.328125 27.425781 50.066406 27.261719 C 49.800781 27.097656 49.464844 27.097656 49.203125 27.261719 C 48.9375 27.425781 48.792969 27.722656 48.832031 28.027344 L 48.832031 35.5625 C 48.199219 35.914062 47.808594 36.570312 47.808594 37.285156 L 47.808594 52.070312 C 47.808594 53.160156 48.707031 54.042969 49.820312 54.042969 L 52.179688 54.042969 C 53.289062 54.042969 54.191406 53.160156 54.191406 52.070312 L 54.191406 37.238281 C 54.195312 36.527344 53.800781 35.867188 53.167969 35.519531 M 52.582031 52.070312 C 52.582031 52.289062 52.402344 52.464844 52.179688 52.464844 L 49.773438 52.464844 C 49.550781 52.464844 49.371094 52.289062 49.371094 52.070312 L 49.371094 37.238281 C 49.371094 37.019531 49.550781 36.84375 49.773438 36.84375 L 52.179688 36.84375 C 52.402344 36.84375 52.582031 37.019531 52.582031 37.238281 Z M 52.582031 52.070312 "/>
<path style=" stroke:none;fill-rule:nonzero;fill:rgb(72.54902%,60%,34.117647%);fill-opacity:1;" d="M 29.175781 6.199219 C 28.816406 5.792969 28.417969 5.425781 27.984375 5.097656 C 27.695312 4.898438 27.316406 4.898438 27.027344 5.097656 C 26.589844 5.421875 26.183594 5.792969 25.824219 6.199219 C 25.070312 7 24.628906 8.035156 24.578125 9.125 C 24.628906 10.214844 25.070312 11.25 25.824219 12.050781 C 26.1875 12.453125 26.589844 12.824219 27.027344 13.152344 C 27.164062 13.253906 27.328125 13.304688 27.5 13.308594 C 27.671875 13.304688 27.84375 13.25 27.984375 13.152344 C 28.414062 12.820312 28.8125 12.453125 29.175781 12.050781 C 29.953125 11.257812 30.417969 10.222656 30.488281 9.125 C 30.433594 8.035156 29.988281 7 29.230469 6.199219 M 27.554688 11.484375 C 26.832031 10.890625 26.359375 10.046875 26.242188 9.125 C 26.367188 8.203125 26.832031 7.355469 27.554688 6.753906 C 28.28125 7.355469 28.75 8.199219 28.871094 9.125 C 28.75 10.046875 28.28125 10.890625 27.554688 11.484375 "/>
</g>
</svg>
