<?xml version="1.0" encoding="UTF-8"?>
<svg xmlns="http://www.w3.org/2000/svg" xmlns:xlink="http://www.w3.org/1999/xlink" width="40pt" height="54pt" viewBox="0 0 40 54" version="1.1">
<g id="surface1">
<path style=" stroke:none;fill-rule:nonzero;fill:rgb(38.823529%,31.372549%,48.627451%);fill-opacity:1;" d="M 20 15.769531 C 20.480469 15.769531 20.871094 16.15625 20.871094 16.632812 C 20.871094 17.109375 20.480469 17.496094 20 17.496094 C 19.519531 17.496094 19.128906 17.109375 19.128906 16.632812 C 19.128906 16.15625 19.519531 15.769531 20 15.769531 M 20 19.222656 C 21.058594 19.222656 22.011719 18.589844 22.414062 17.621094 C 22.816406 16.652344 22.59375 15.539062 21.84375 14.796875 C 21.09375 14.058594 19.96875 13.839844 18.992188 14.242188 C 18.015625 14.648438 17.382812 15.597656 17.386719 16.644531 C 17.394531 18.074219 18.558594 19.230469 20 19.234375 "/>
<path style=" stroke:none;fill-rule:nonzero;fill:rgb(38.823529%,31.372549%,48.627451%);fill-opacity:1;" d="M 28.242188 31.804688 C 29.882812 32.757812 31.28125 34.066406 32.332031 35.640625 L 7.714844 35.640625 C 8.761719 34.066406 10.160156 32.753906 11.800781 31.804688 L 12.21875 31.550781 L 12.21875 24.832031 L 12.585938 24.425781 L 27.460938 24.425781 L 27.824219 24.832031 L 27.824219 31.550781 Z M 29.6875 51.390625 C 29.207031 51.800781 28.589844 52.027344 27.957031 52.023438 L 12.042969 52.023438 C 11.410156 52.027344 10.792969 51.800781 10.3125 51.390625 C 8.300781 49.476562 6.945312 46.984375 6.445312 44.261719 L 29.585938 44.261719 L 29.585938 42.535156 L 28 42.535156 L 30.433594 38.917969 L 32.859375 42.535156 L 31.292969 42.535156 L 31.292969 44.261719 L 33.554688 44.261719 C 33.054688 46.984375 31.699219 49.476562 29.6875 51.390625 M 12.054688 42.535156 L 7.140625 42.535156 L 9.566406 38.917969 Z M 13.101562 40.984375 L 10.613281 37.410156 L 15.480469 37.410156 Z M 19.007812 42.535156 L 14.09375 42.535156 L 16.527344 38.917969 Z M 20.054688 40.984375 L 17.566406 37.410156 L 22.433594 37.410156 Z M 25.960938 42.535156 L 21.046875 42.535156 L 23.480469 38.917969 Z M 24.519531 37.410156 L 29.386719 37.410156 L 26.953125 41.027344 Z M 33.90625 40.851562 L 33.90625 41.015625 L 31.472656 37.410156 L 33.222656 37.410156 C 33.671875 38.503906 33.902344 39.671875 33.90625 40.851562 M 6.777344 37.410156 L 8.527344 37.410156 L 6.105469 41.015625 C 6.105469 41.015625 6.105469 40.90625 6.105469 40.851562 C 6.109375 39.675781 6.339844 38.507812 6.777344 37.410156 M 6.886719 25.703125 C 5.894531 25.808594 4.890625 25.703125 3.945312 25.386719 C 6.167969 24.640625 8.453125 24.09375 10.777344 23.757812 C 9.714844 24.78125 8.351562 25.441406 6.886719 25.640625 M 9.972656 22.140625 C 7.679688 22.5 5.421875 23.0625 3.230469 23.8125 C 4.902344 21.914062 7.59375 21.25 9.972656 22.140625 M 11.96875 16.644531 C 11.96875 17.121094 11.578125 17.507812 11.097656 17.507812 C 10.617188 17.507812 10.226562 17.121094 10.226562 16.644531 C 10.226562 16.167969 10.617188 15.78125 11.097656 15.78125 C 11.578125 15.78125 11.96875 16.167969 11.96875 16.644531 M 8.121094 17.605469 C 7.988281 17.210938 7.589844 16.964844 7.171875 17.015625 C 6.925781 17.066406 6.671875 17.066406 6.425781 17.015625 C 5.511719 16.714844 5.019531 15.734375 5.324219 14.832031 C 5.625 13.925781 6.613281 13.433594 7.527344 13.738281 C 7.773438 13.816406 7.996094 13.949219 8.175781 14.128906 C 8.480469 14.417969 8.949219 14.453125 9.289062 14.207031 C 9.628906 13.964844 9.746094 13.511719 9.566406 13.136719 C 9.417969 12.871094 9.34375 12.574219 9.355469 12.273438 C 9.359375 11.355469 10.09375 10.601562 11.019531 10.566406 L 11.40625 10.566406 C 12.234375 10.714844 12.839844 11.433594 12.835938 12.273438 C 12.832031 12.527344 12.773438 12.777344 12.660156 13.003906 C 12.53125 13.277344 12.558594 13.597656 12.726562 13.847656 C 12.660156 13.96875 12.605469 14.097656 12.5625 14.230469 C 12.554688 14.289062 12.554688 14.351562 12.5625 14.414062 C 11.65625 13.816406 10.46875 13.835938 9.585938 14.46875 C 8.703125 15.101562 8.304688 16.210938 8.59375 17.253906 C 8.878906 18.296875 9.789062 19.050781 10.875 19.148438 C 11.960938 19.246094 12.992188 18.667969 13.464844 17.695312 C 13.753906 17.980469 14.089844 18.210938 14.457031 18.382812 C 13.859375 19.382812 13.8125 20.617188 14.324219 21.660156 C 13.574219 21.980469 12.703125 21.746094 12.21875 21.09375 C 12.074219 20.886719 11.972656 20.652344 11.921875 20.402344 C 11.847656 19.996094 11.492188 19.703125 11.074219 19.703125 C 10.65625 19.703125 10.292969 19.996094 10.214844 20.402344 C 9.109375 20.046875 7.941406 19.933594 6.789062 20.078125 C 6.769531 19.683594 6.886719 19.300781 7.117188 18.984375 C 7.28125 18.804688 7.484375 18.667969 7.714844 18.578125 C 8.074219 18.371094 8.242188 17.945312 8.121094 17.550781 M 5.621094 7.464844 C 5.207031 6.714844 5.414062 5.777344 6.105469 5.269531 C 6.792969 4.757812 7.757812 4.828125 8.363281 5.429688 C 8.667969 5.703125 9.125 5.726562 9.460938 5.488281 C 9.792969 5.246094 9.910156 4.808594 9.742188 4.4375 C 9.628906 4.207031 9.570312 3.957031 9.566406 3.703125 C 9.566406 2.75 10.34375 1.976562 11.304688 1.976562 C 12.265625 1.976562 13.046875 2.75 13.046875 3.703125 C 13.046875 3.957031 12.984375 4.210938 12.871094 4.4375 C 12.691406 4.8125 12.804688 5.261719 13.148438 5.507812 C 13.488281 5.75 13.957031 5.71875 14.257812 5.429688 C 14.441406 5.25 14.664062 5.113281 14.910156 5.039062 C 15.589844 4.808594 16.347656 5.019531 16.808594 5.570312 C 17.269531 6.121094 17.339844 6.894531 16.988281 7.515625 C 16.632812 8.140625 15.929688 8.484375 15.21875 8.382812 C 14.816406 8.363281 14.449219 8.613281 14.324219 8.992188 C 14.203125 9.386719 14.378906 9.816406 14.742188 10.011719 C 14.964844 10.136719 15.160156 10.300781 15.316406 10.503906 C 15.59375 10.902344 15.699219 11.394531 15.601562 11.867188 C 15.265625 11.820312 14.925781 11.820312 14.589844 11.867188 C 14.484375 10.992188 14.042969 10.1875 13.355469 9.628906 C 13.746094 9.171875 13.957031 8.597656 13.960938 8 C 14.023438 7.035156 13.542969 6.117188 12.710938 5.617188 C 11.878906 5.117188 10.832031 5.117188 10 5.617188 C 9.167969 6.117188 8.6875 7.035156 8.75 8 C 8.746094 8.507812 8.894531 9.007812 9.179688 9.429688 C 8.351562 9.992188 7.804688 10.878906 7.679688 11.867188 C 7.488281 11.828125 7.292969 11.808594 7.097656 11.804688 C 7.003906 11.335938 7.113281 10.855469 7.394531 10.46875 C 7.542969 10.265625 7.742188 10.097656 7.96875 9.976562 C 8.300781 9.769531 8.449219 9.367188 8.332031 8.992188 C 8.199219 8.601562 7.808594 8.355469 7.394531 8.402344 C 6.660156 8.5 5.949219 8.121094 5.621094 7.464844 M 11.128906 8.839844 C 10.734375 8.757812 10.449219 8.414062 10.445312 8.011719 C 10.441406 7.539062 10.816406 7.152344 11.289062 7.140625 C 11.761719 7.125 12.160156 7.488281 12.1875 7.957031 C 12.210938 8.425781 11.855469 8.828125 11.382812 8.863281 L 11.128906 8.863281 M 20.277344 22.710938 L 19.714844 22.710938 C 19.8125 22.632812 19.910156 22.546875 20 22.457031 L 20.277344 22.710938 M 18.160156 14.121094 C 18.515625 13.875 18.632812 13.40625 18.433594 13.027344 C 18.324219 12.792969 18.265625 12.539062 18.257812 12.285156 C 18.257812 11.328125 19.039062 10.558594 20 10.558594 C 20.960938 10.558594 21.742188 11.328125 21.742188 12.285156 C 21.742188 12.542969 21.679688 12.796875 21.566406 13.027344 C 21.367188 13.40625 21.484375 13.875 21.839844 14.121094 C 22.175781 14.355469 22.636719 14.328125 22.941406 14.054688 C 23.121094 13.875 23.339844 13.742188 23.582031 13.660156 C 24.261719 13.429688 25.015625 13.640625 25.480469 14.1875 C 25.941406 14.734375 26.015625 15.507812 25.664062 16.132812 C 25.316406 16.757812 24.613281 17.105469 23.902344 17.003906 C 23.488281 16.960938 23.101562 17.207031 22.964844 17.59375 C 22.839844 17.988281 23.015625 18.414062 23.382812 18.613281 C 23.605469 18.738281 23.800781 18.902344 23.957031 19.105469 C 24.523438 19.875 24.347656 20.957031 23.570312 21.519531 C 22.792969 22.082031 21.699219 21.910156 21.136719 21.136719 C 20.988281 20.929688 20.886719 20.6875 20.847656 20.4375 C 20.769531 20.027344 20.40625 19.734375 19.988281 19.738281 C 19.574219 19.734375 19.214844 20.03125 19.140625 20.4375 C 19.09375 20.6875 18.992188 20.925781 18.84375 21.136719 C 18.488281 21.667969 17.871094 21.964844 17.230469 21.90625 C 16.589844 21.851562 16.035156 21.449219 15.785156 20.863281 C 15.535156 20.273438 15.628906 19.597656 16.03125 19.105469 C 16.183594 18.898438 16.378906 18.730469 16.605469 18.613281 C 16.972656 18.414062 17.144531 17.988281 17.015625 17.59375 C 16.898438 17.238281 16.566406 16.996094 16.1875 16.996094 L 16.078125 16.996094 C 15.269531 17.105469 14.492188 16.648438 14.207031 15.890625 C 13.917969 15.136719 14.199219 14.285156 14.878906 13.839844 C 15.5625 13.398438 16.460938 13.480469 17.046875 14.042969 C 17.347656 14.328125 17.8125 14.355469 18.148438 14.109375 M 22.996094 7.453125 C 22.679688 6.832031 22.769531 6.082031 23.222656 5.550781 C 23.679688 5.023438 24.410156 4.816406 25.078125 5.027344 C 25.324219 5.105469 25.546875 5.238281 25.730469 5.421875 C 26.035156 5.707031 26.5 5.742188 26.84375 5.496094 C 27.183594 5.253906 27.300781 4.800781 27.117188 4.425781 C 27.003906 4.199219 26.941406 3.949219 26.941406 3.691406 C 26.941406 2.738281 27.722656 1.964844 28.683594 1.964844 C 29.644531 1.964844 30.425781 2.738281 30.425781 3.691406 C 30.417969 3.945312 30.359375 4.195312 30.246094 4.425781 C 30.078125 4.796875 30.195312 5.238281 30.53125 5.476562 C 30.863281 5.71875 31.320312 5.695312 31.625 5.421875 C 32.238281 4.824219 33.199219 4.761719 33.882812 5.273438 C 34.570312 5.78125 34.78125 6.710938 34.378906 7.464844 C 34.046875 8.113281 33.332031 8.480469 32.605469 8.382812 C 32.195312 8.339844 31.804688 8.582031 31.667969 8.972656 C 31.539062 9.363281 31.710938 9.792969 32.078125 9.988281 C 32.304688 10.105469 32.5 10.273438 32.648438 10.480469 C 32.929688 10.863281 33.039062 11.347656 32.949219 11.8125 C 32.746094 11.816406 32.546875 11.835938 32.351562 11.878906 C 32.234375 10.890625 31.6875 10 30.855469 9.441406 C 31.144531 9.019531 31.296875 8.519531 31.292969 8.011719 C 31.359375 7.046875 30.875 6.128906 30.042969 5.628906 C 29.210938 5.125 28.167969 5.125 27.335938 5.628906 C 26.5 6.128906 26.019531 7.046875 26.082031 8.011719 C 26.085938 8.605469 26.300781 9.183594 26.6875 9.640625 C 26 10.199219 25.558594 11.003906 25.453125 11.878906 C 25.117188 11.832031 24.777344 11.832031 24.441406 11.878906 C 24.339844 11.40625 24.445312 10.914062 24.726562 10.523438 C 24.886719 10.300781 25.097656 10.121094 25.34375 10 C 25.714844 9.804688 25.886719 9.375 25.761719 8.976562 C 25.636719 8.582031 25.242188 8.332031 24.828125 8.382812 C 24.097656 8.480469 23.386719 8.113281 23.050781 7.464844 M 28.03125 16.644531 C 28.101562 16.226562 28.464844 15.917969 28.890625 15.917969 C 29.320312 15.917969 29.683594 16.226562 29.753906 16.644531 C 29.753906 17.121094 29.363281 17.507812 28.882812 17.507812 C 28.402344 17.507812 28.011719 17.121094 28.011719 16.644531 M 27.824219 8.011719 C 27.824219 7.535156 28.214844 7.148438 28.695312 7.148438 C 29.175781 7.148438 29.566406 7.535156 29.566406 8.011719 C 29.5625 8.414062 29.277344 8.757812 28.882812 8.839844 L 28.628906 8.839844 C 28.175781 8.808594 27.828125 8.4375 27.824219 7.988281 M 33.574219 16.886719 C 33.328125 16.933594 33.074219 16.933594 32.828125 16.886719 C 32.410156 16.832031 32.011719 17.078125 31.878906 17.476562 C 31.757812 17.871094 31.925781 18.296875 32.285156 18.503906 C 32.515625 18.621094 32.714844 18.789062 32.871094 18.996094 C 33.09375 19.316406 33.207031 19.699219 33.191406 20.085938 C 32.039062 19.945312 30.867188 20.054688 29.761719 20.414062 C 29.683594 20.007812 29.324219 19.714844 28.902344 19.714844 C 28.488281 19.714844 28.128906 20.007812 28.054688 20.414062 C 28.007812 20.664062 27.90625 20.898438 27.757812 21.105469 C 27.277344 21.757812 26.402344 21.996094 25.652344 21.671875 C 26.171875 20.652344 26.144531 19.445312 25.585938 18.449219 C 25.957031 18.277344 26.289062 18.042969 26.578125 17.757812 C 27.152344 18.894531 28.476562 19.445312 29.695312 19.058594 C 30.914062 18.667969 31.667969 17.457031 31.472656 16.203125 C 31.273438 14.949219 30.183594 14.023438 28.902344 14.019531 C 28.398438 14.023438 27.90625 14.167969 27.480469 14.4375 C 27.488281 14.375 27.488281 14.3125 27.480469 14.25 C 27.4375 14.121094 27.386719 13.992188 27.328125 13.867188 C 27.472656 13.605469 27.472656 13.289062 27.328125 13.027344 C 27.21875 12.796875 27.15625 12.546875 27.152344 12.292969 C 27.152344 11.4375 27.792969 10.710938 28.648438 10.589844 L 28.957031 10.589844 C 29.882812 10.613281 30.628906 11.355469 30.644531 12.273438 C 30.644531 12.527344 30.582031 12.777344 30.46875 13.003906 C 30.289062 13.382812 30.402344 13.832031 30.746094 14.078125 C 31.085938 14.320312 31.554688 14.289062 31.855469 14 C 32.039062 13.820312 32.261719 13.6875 32.507812 13.605469 C 32.945312 13.464844 33.421875 13.503906 33.828125 13.714844 C 34.242188 13.921875 34.550781 14.285156 34.6875 14.722656 C 34.835938 15.15625 34.800781 15.628906 34.59375 16.039062 C 34.386719 16.449219 34.023438 16.761719 33.585938 16.90625 M 36.78125 23.835938 C 34.589844 23.082031 32.332031 22.523438 30.039062 22.164062 C 32.417969 21.269531 35.105469 21.9375 36.78125 23.835938 M 33.125 25.660156 C 31.660156 25.460938 30.296875 24.804688 29.234375 23.78125 C 31.550781 24.109375 33.835938 24.648438 36.054688 25.386719 C 35.105469 25.679688 34.101562 25.765625 33.113281 25.640625 M 32.871094 27.34375 C 33.269531 27.398438 33.667969 27.429688 34.070312 27.433594 C 35.964844 27.429688 37.804688 26.8125 39.304688 25.671875 L 40 25.148438 L 38.425781 23.09375 C 37.523438 21.917969 36.304688 21.023438 34.910156 20.511719 C 35.019531 19.757812 34.871094 18.988281 34.492188 18.328125 C 36.070312 17.609375 36.871094 15.84375 36.363281 14.195312 C 36.085938 13.335938 35.476562 12.621094 34.667969 12.207031 C 34.84375 11.390625 34.714844 10.539062 34.304688 9.8125 C 36.003906 9.140625 36.890625 7.273438 36.324219 5.542969 C 35.761719 3.8125 33.941406 2.8125 32.164062 3.257812 C 31.945312 1.53125 30.464844 0.234375 28.710938 0.234375 C 26.957031 0.234375 25.476562 1.53125 25.257812 3.257812 C 23.53125 2.917969 21.820312 3.910156 21.277344 5.574219 C 20.988281 6.441406 21.0625 7.386719 21.488281 8.195312 C 21.828125 8.910156 22.414062 9.484375 23.140625 9.8125 C 23.035156 9.992188 22.949219 10.183594 22.886719 10.382812 C 22.25 9.4375 21.179688 8.875 20.03125 8.875 C 18.886719 8.875 17.816406 9.4375 17.179688 10.382812 C 17.117188 10.183594 17.03125 9.992188 16.925781 9.8125 C 17.640625 9.496094 18.222656 8.945312 18.578125 8.25 C 19.179688 7.066406 19.042969 5.644531 18.234375 4.59375 C 17.421875 3.539062 16.074219 3.039062 14.765625 3.300781 C 14.546875 1.574219 13.066406 0.28125 11.3125 0.28125 C 9.558594 0.28125 8.078125 1.574219 7.855469 3.300781 C 6.078125 2.859375 4.261719 3.859375 3.695312 5.585938 C 3.132812 7.316406 4.015625 9.183594 5.71875 9.855469 C 5.3125 10.585938 5.1875 11.4375 5.367188 12.25 C 4.554688 12.664062 3.9375 13.378906 3.660156 14.238281 C 3.136719 15.890625 3.929688 17.664062 5.507812 18.394531 C 5.128906 19.054688 4.980469 19.824219 5.089844 20.578125 C 3.691406 21.085938 2.472656 21.980469 1.574219 23.160156 L 0 25.167969 L 0.695312 25.695312 C 2.195312 26.832031 4.035156 27.453125 5.929688 27.453125 C 6.332031 27.453125 6.730469 27.421875 7.128906 27.367188 C 8.300781 27.210938 9.425781 26.816406 10.433594 26.207031 L 10.433594 30.578125 C 6.800781 32.75 4.527344 36.605469 4.40625 40.808594 C 4.234375 45.261719 5.957031 49.582031 9.15625 52.710938 C 9.949219 53.417969 10.980469 53.804688 12.042969 53.804688 L 27.957031 53.804688 C 29.023438 53.808594 30.058594 53.417969 30.855469 52.710938 C 34.0625 49.601562 35.804688 45.300781 35.660156 40.851562 C 35.523438 36.640625 33.230469 32.789062 29.574219 30.632812 L 29.574219 26.261719 C 30.585938 26.871094 31.710938 27.265625 32.882812 27.421875 "/>
</g>
</svg>
