<?xml version="1.0" encoding="UTF-8"?>
<svg xmlns="http://www.w3.org/2000/svg" xmlns:xlink="http://www.w3.org/1999/xlink" width="55pt" height="54pt" viewBox="0 0 55 54" version="1.1">
<g id="surface1">
<path style=" stroke:none;fill-rule:nonzero;fill:rgb(72.54902%,60%,34.117647%);fill-opacity:1;" d="M 52.253906 23.390625 L 44.957031 23.390625 C 44.515625 23.394531 44.136719 23.710938 44.058594 24.140625 L 42.226562 34.074219 C 42.171875 34.339844 42.238281 34.617188 42.414062 34.832031 C 42.585938 35.046875 42.847656 35.171875 43.125 35.175781 L 47.691406 35.175781 C 47.4375 40.296875 43.070312 44.285156 37.851562 44.160156 C 32.628906 44.039062 28.464844 39.851562 28.460938 34.722656 L 28.460938 25.71875 C 30.378906 27.757812 33.371094 28.4375 36.003906 27.425781 C 38.636719 26.417969 40.371094 23.925781 40.375 21.152344 L 40.375 18.945312 L 44.957031 18.945312 C 45.238281 18.945312 45.503906 18.820312 45.679688 18.605469 C 45.855469 18.390625 45.925781 18.113281 45.867188 17.84375 L 44.027344 7.910156 C 43.945312 7.484375 43.566406 7.175781 43.125 7.171875 L 35.753906 7.171875 C 35.308594 7.175781 34.929688 7.484375 34.84375 7.910156 L 33.011719 17.84375 C 32.953125 18.113281 33.023438 18.390625 33.199219 18.605469 C 33.378906 18.820312 33.640625 18.945312 33.921875 18.945312 L 38.496094 18.945312 L 38.496094 21.152344 C 38.496094 23.894531 36.234375 26.117188 33.4375 26.117188 C 30.644531 26.117188 28.382812 23.894531 28.382812 21.152344 L 28.382812 1.796875 L 29.304688 1.796875 C 29.804688 1.796875 30.214844 1.398438 30.214844 0.90625 C 30.21875 0.417969 29.832031 0.0195312 29.335938 0 L 25.671875 0 C 25.324219 -0.0390625 24.980469 0.125 24.792969 0.417969 C 24.605469 0.710938 24.605469 1.085938 24.792969 1.378906 C 24.980469 1.675781 25.324219 1.835938 25.671875 1.796875 L 26.585938 1.796875 L 26.585938 21.152344 C 26.585938 23.894531 24.320312 26.117188 21.527344 26.117188 C 18.734375 26.117188 16.46875 23.894531 16.46875 21.152344 L 16.46875 18.945312 L 21.054688 18.945312 C 21.332031 18.941406 21.59375 18.816406 21.769531 18.601562 C 21.941406 18.386719 22.011719 18.109375 21.953125 17.84375 L 20.121094 7.910156 C 20.042969 7.484375 19.664062 7.175781 19.222656 7.171875 L 11.917969 7.171875 C 11.476562 7.175781 11.101562 7.484375 11.019531 7.910156 L 9.1875 17.84375 C 9.128906 18.109375 9.199219 18.386719 9.371094 18.601562 C 9.546875 18.816406 9.808594 18.941406 10.085938 18.945312 L 14.671875 18.945312 L 14.671875 21.152344 C 14.671875 23.925781 16.40625 26.417969 19.039062 27.425781 C 21.671875 28.4375 24.667969 27.757812 26.585938 25.71875 L 26.585938 34.648438 C 26.710938 39.855469 22.511719 44.183594 17.207031 44.308594 C 11.898438 44.429688 7.492188 40.308594 7.367188 35.097656 L 11.917969 35.097656 C 12.191406 35.097656 12.449219 34.976562 12.625 34.769531 C 12.796875 34.566406 12.867188 34.296875 12.816406 34.039062 L 10.984375 24.109375 C 10.898438 23.703125 10.542969 23.410156 10.121094 23.390625 L 2.757812 23.390625 C 2.3125 23.394531 1.929688 23.710938 1.847656 24.140625 L 0.00390625 34.039062 C -0.0429688 34.300781 0.03125 34.566406 0.207031 34.769531 C 0.378906 34.980469 0.640625 35.101562 0.914062 35.097656 L 5.5 35.097656 L 5.5 46.960938 C 4.234375 47.398438 3.476562 48.667969 3.703125 49.964844 C 3.929688 51.265625 5.074219 52.214844 6.417969 52.214844 C 7.757812 52.214844 8.90625 51.265625 9.132812 49.964844 C 9.355469 48.667969 8.597656 47.398438 7.332031 46.960938 L 7.332031 40.726562 C 9.4375 43.941406 13.0625 45.886719 16.957031 45.886719 C 20.851562 45.886719 24.480469 43.941406 26.585938 40.726562 L 26.585938 48.757812 C 25.320312 49.195312 24.558594 50.464844 24.785156 51.765625 C 25.011719 53.0625 26.160156 54.011719 27.5 54.011719 C 28.839844 54.011719 29.988281 53.0625 30.214844 51.765625 C 30.441406 50.464844 29.679688 49.195312 28.414062 48.757812 L 28.414062 40.726562 C 30.519531 43.941406 34.148438 45.886719 38.042969 45.886719 C 41.9375 45.886719 45.5625 43.941406 47.667969 40.726562 L 47.667969 46.960938 C 46.402344 47.398438 45.644531 48.667969 45.867188 49.964844 C 46.09375 51.265625 47.242188 52.214844 48.582031 52.214844 C 49.925781 52.214844 51.070312 51.265625 51.296875 49.964844 C 51.523438 48.667969 50.765625 47.398438 49.5 46.960938 L 49.5 35.097656 L 54.085938 35.097656 C 54.363281 35.09375 54.625 34.96875 54.796875 34.753906 C 54.972656 34.542969 55.039062 34.261719 54.984375 33.996094 L 53.152344 24.066406 C 53.074219 23.632812 52.695312 23.320312 52.253906 23.316406 M 36.519531 8.96875 L 42.316406 8.96875 L 43.835938 17.101562 L 35.011719 17.101562 Z M 12.683594 8.96875 L 18.492188 8.96875 L 19.988281 17.070312 L 11.242188 17.070312 Z M 2.015625 33.246094 L 3.523438 25.144531 L 9.320312 25.144531 L 10.816406 33.246094 Z M 6.421875 50.390625 C 5.917969 50.390625 5.507812 49.992188 5.5 49.5 C 5.488281 49.25 5.582031 49.007812 5.753906 48.828125 C 5.929688 48.648438 6.171875 48.550781 6.421875 48.550781 C 6.925781 48.554688 7.332031 48.957031 7.332031 49.453125 C 7.332031 49.949219 6.925781 50.347656 6.421875 50.347656 M 27.503906 52.191406 C 27 52.191406 26.589844 51.792969 26.585938 51.296875 C 26.585938 50.796875 26.996094 50.390625 27.503906 50.390625 C 28.011719 50.398438 28.414062 50.800781 28.414062 51.296875 C 28.414062 51.789062 28.007812 52.191406 27.503906 52.191406 M 48.578125 50.390625 C 48.074219 50.390625 47.667969 49.992188 47.667969 49.5 C 47.664062 49.128906 47.886719 48.796875 48.230469 48.652344 C 48.574219 48.511719 48.976562 48.585938 49.238281 48.847656 C 49.503906 49.109375 49.582031 49.5 49.4375 49.839844 C 49.292969 50.175781 48.953125 50.394531 48.578125 50.390625 M 44.183594 33.300781 L 45.679688 25.203125 L 51.488281 25.203125 L 52.984375 33.300781 Z M 44.183594 33.300781 "/>
</g>
</svg>
