<?xml version="1.0" encoding="UTF-8"?>
<svg xmlns="http://www.w3.org/2000/svg" xmlns:xlink="http://www.w3.org/1999/xlink" width="59pt" height="55pt" viewBox="0 0 59 55" version="1.1">
<g id="surface1">
<path style=" stroke:none;fill-rule:nonzero;fill:rgb(38.823529%,31.372549%,48.627451%);fill-opacity:1;" d="M 43.351562 15.667969 C 40.035156 15.378906 36.3125 15.1875 32.46875 15.132812 L 32.46875 17.113281 C 36.269531 17.113281 39.894531 17.347656 43.21875 17.640625 Z M 43.351562 15.667969 "/>
<path style=" stroke:none;fill-rule:nonzero;fill:rgb(38.823529%,31.372549%,48.627451%);fill-opacity:1;" d="M 26.523438 17.113281 L 26.523438 15.132812 C 23.316406 15.1875 20.199219 15.320312 17.285156 15.53125 L 17.425781 17.503906 C 20.3125 17.292969 23.382812 17.160156 26.554688 17.113281 "/>
<path style=" stroke:none;fill-rule:nonzero;fill:rgb(38.823529%,31.372549%,48.627451%);fill-opacity:1;" d="M 1.96875 22.765625 C 8.398438 25.972656 28.488281 26.019531 29.503906 26.019531 C 30.523438 26.019531 50.601562 26.019531 57.03125 22.765625 L 57.03125 37.894531 C 55.519531 37.832031 54.027344 37.519531 52.613281 36.972656 C 50.699219 36.226562 48.664062 35.859375 46.613281 35.890625 C 44.558594 35.835938 42.511719 36.1875 40.589844 36.925781 C 38.871094 37.59375 37.039062 37.917969 35.195312 37.875 C 33.371094 37.9375 31.550781 37.644531 29.835938 37.003906 C 27.914062 36.242188 25.859375 35.863281 23.792969 35.890625 C 21.738281 35.839844 19.691406 36.191406 17.769531 36.925781 C 16.054688 37.597656 14.226562 37.917969 12.386719 37.875 C 10.554688 37.941406 8.726562 37.644531 7.007812 37.003906 C 5.394531 36.390625 3.691406 36.046875 1.96875 35.992188 Z M 30.542969 52.78125 L 28.464844 52.78125 L 27.625 38.351562 C 28.191406 38.496094 28.730469 38.675781 29.183594 38.855469 C 29.910156 39.121094 30.644531 39.34375 31.394531 39.523438 Z M 6.367188 38.855469 C 8.289062 39.589844 10.332031 39.945312 12.386719 39.902344 C 14.445312 39.945312 16.488281 39.589844 18.410156 38.855469 C 20.125 38.191406 21.953125 37.871094 23.792969 37.917969 C 24.410156 37.914062 25.023438 37.9375 25.636719 37.996094 L 26.523438 52.78125 L 22.652344 52.78125 L 22.652344 54.765625 L 36.390625 54.765625 L 36.390625 52.78125 L 32.523438 52.78125 L 33.375 39.824219 C 33.925781 39.824219 34.476562 39.902344 35.195312 39.902344 C 37.253906 39.945312 39.296875 39.589844 41.21875 38.855469 C 42.9375 38.191406 44.769531 37.871094 46.613281 37.917969 C 48.449219 37.871094 50.277344 38.1875 51.992188 38.855469 C 53.917969 39.589844 55.960938 39.945312 58.015625 39.902344 C 58.558594 39.902344 59 39.457031 59 38.910156 L 59 20.558594 C 59 19.277344 57.894531 17.628906 49.332031 16.347656 L 49.042969 18.308594 C 55.242188 19.242188 56.691406 20.28125 56.988281 20.535156 C 55.804688 21.984375 45.660156 24 29.503906 24 C 13.347656 24 3.195312 22.019531 2.023438 20.570312 C 2.332031 20.289062 3.878906 19.175781 10.707031 18.207031 L 10.433594 16.246094 C 2.296875 17.371094 0.398438 18.820312 0.0664062 20.066406 L 0 20.066406 L 0 37.894531 L 0.984375 37.894531 C 2.820312 37.847656 4.648438 38.167969 6.367188 38.832031 "/>
<path style=" stroke:none;fill-rule:nonzero;fill:rgb(38.823529%,31.372549%,48.627451%);fill-opacity:1;" d="M 21.636719 0.234375 L 23.605469 0.234375 L 23.605469 2.21875 L 21.636719 2.21875 Z M 21.636719 0.234375 "/>
<path style=" stroke:none;fill-rule:nonzero;fill:rgb(38.823529%,31.372549%,48.627451%);fill-opacity:1;" d="M 28.523438 0.234375 L 30.488281 0.234375 L 30.488281 2.21875 L 28.523438 2.21875 Z M 28.523438 0.234375 "/>
<path style=" stroke:none;fill-rule:nonzero;fill:rgb(38.823529%,31.372549%,48.627451%);fill-opacity:1;" d="M 35.40625 0.234375 L 37.375 0.234375 L 37.375 2.21875 L 35.40625 2.21875 Z M 35.40625 0.234375 "/>
<path style=" stroke:none;fill-rule:nonzero;fill:rgb(38.823529%,31.372549%,48.627451%);fill-opacity:1;" d="M 36.390625 19.078125 L 30.488281 19.078125 L 30.488281 13.125 L 34.421875 13.125 C 36.050781 13.121094 37.367188 11.792969 37.375 10.152344 L 37.375 4.199219 L 35.363281 4.199219 L 35.363281 10.152344 C 35.363281 10.699219 34.921875 11.144531 34.378906 11.144531 L 30.488281 11.144531 L 30.488281 4.199219 L 28.523438 4.199219 L 28.523438 11.144531 L 24.589844 11.144531 C 24.042969 11.144531 23.605469 10.699219 23.605469 10.152344 L 23.605469 4.199219 L 21.636719 4.199219 L 21.636719 10.152344 C 21.636719 11.792969 22.957031 13.125 24.589844 13.125 L 28.523438 13.125 L 28.523438 19.078125 L 22.621094 19.078125 L 22.621094 21.058594 L 36.390625 21.058594 Z M 36.390625 19.078125 "/>
<path style=" stroke:none;fill-rule:nonzero;fill:rgb(38.823529%,31.372549%,48.627451%);fill-opacity:1;" d="M 46.214844 14.117188 C 45.671875 14.117188 45.230469 13.675781 45.230469 13.125 L 45.230469 12.132812 L 47.199219 12.132812 L 47.199219 13.125 C 47.199219 13.675781 46.757812 14.117188 46.214844 14.117188 M 49.164062 13.125 L 49.164062 9.148438 L 47.199219 9.148438 L 47.199219 10.152344 L 45.230469 10.152344 L 45.230469 9.148438 L 43.273438 9.148438 L 43.273438 13.113281 C 43.269531 14.367188 44.054688 15.488281 45.230469 15.902344 L 45.230469 19.066406 L 44.203125 19.066406 L 44.203125 21.046875 L 48.179688 21.046875 L 48.179688 19.078125 L 47.199219 19.078125 L 47.199219 15.910156 C 48.375 15.503906 49.167969 14.382812 49.164062 13.125 "/>
<path style=" stroke:none;fill-rule:nonzero;fill:rgb(38.823529%,31.372549%,48.627451%);fill-opacity:1;" d="M 13.769531 14.117188 C 13.226562 14.117188 12.785156 13.675781 12.785156 13.125 L 12.785156 12.132812 L 14.753906 12.132812 L 14.753906 13.125 C 14.753906 13.675781 14.3125 14.117188 13.769531 14.117188 M 16.71875 13.125 L 16.71875 9.148438 L 14.753906 9.148438 L 14.753906 10.152344 L 12.785156 10.152344 L 12.785156 9.148438 L 10.820312 9.148438 L 10.820312 13.113281 C 10.820312 14.371094 11.609375 15.488281 12.785156 15.902344 L 12.785156 19.066406 L 11.800781 19.066406 L 11.800781 21.046875 L 15.734375 21.046875 L 15.734375 19.078125 L 14.753906 19.078125 L 14.753906 15.910156 C 15.925781 15.492188 16.710938 14.378906 16.71875 13.125 "/>
<path style=" stroke:none;fill-rule:nonzero;fill:rgb(38.823529%,31.372549%,48.627451%);fill-opacity:1;" d="M 22.621094 28 L 24.589844 28 L 24.589844 33.953125 L 22.621094 33.953125 Z M 22.621094 28 "/>
<path style=" stroke:none;fill-rule:nonzero;fill:rgb(38.823529%,31.372549%,48.627451%);fill-opacity:1;" d="M 34.421875 28 L 36.390625 28 L 36.390625 35.933594 L 34.421875 35.933594 Z M 34.421875 28 "/>
<path style=" stroke:none;fill-rule:nonzero;fill:rgb(38.823529%,31.372549%,48.627451%);fill-opacity:1;" d="M 46.214844 27.007812 L 48.179688 27.007812 L 48.179688 33.953125 L 46.214844 33.953125 Z M 46.214844 27.007812 "/>
<path style=" stroke:none;fill-rule:nonzero;fill:rgb(38.823529%,31.372549%,48.627451%);fill-opacity:1;" d="M 11.800781 28 L 13.769531 28 L 13.769531 35.933594 L 11.800781 35.933594 Z M 11.800781 28 "/>
</g>
</svg>
